<?xml version="1.0" standalone="no"?>
<!DOCTYPE svg PUBLIC "-//W3C//DTD SVG 20010904//EN"
 "http://www.w3.org/TR/2001/REC-SVG-20010904/DTD/svg10.dtd">
<svg version="1.0" xmlns="http://www.w3.org/2000/svg"
 width="700.000000pt" height="700.000000pt" viewBox="0 0 700.000000 700.000000"
 preserveAspectRatio="xMidYMid meet">
<metadata>
Created by potrace 1.14, written by Peter Selinger 2001-2017
</metadata>
<g transform="translate(0.000000,700.000000) scale(0.100000,-0.100000)"
fill="#000000" stroke="none">
<path d="M3737 6495 c-235 -233 -404 -529 -528 -924 -32 -102 -75 -261 -83
-301 -2 -14 -10 -47 -16 -75 -6 -27 -14 -61 -16 -75 -2 -14 -7 -36 -9 -50 -14
-65 -42 -250 -50 -320 -3 -30 -8 -66 -10 -80 -4 -22 -11 -99 -20 -205 -2 -16
-3 -43 -4 -59 l-1 -29 -22 19 c-110 94 -328 92 -482 -7 -103 -65 -203 -205
-221 -307 -5 -35 -11 -41 -38 -46 -60 -12 -177 -78 -239 -136 -76 -69 -130
-157 -163 -265 -21 -69 -24 -95 -21 -187 2 -60 0 -108 -4 -108 -14 0 -104 -98
-138 -150 -20 -30 -48 -91 -63 -135 -24 -71 -27 -93 -25 -190 3 -122 24 -198
77 -285 l31 -50 -35 -41 c-50 -58 -104 -165 -121 -240 -22 -91 -16 -247 12
-323 60 -164 199 -307 345 -355 34 -12 37 -15 38 -54 3 -116 27 -206 84 -322
116 -234 329 -395 590 -446 52 -10 243 -13 283 -5 233 50 399 150 531 321 21
28 47 67 58 87 l20 37 51 -77 c153 -235 424 -381 697 -374 47 1 139 10 175 17
87 16 231 84 315 148 122 92 183 172 275 357 21 43 48 183 49 255 1 40 2 41
67 69 146 64 265 193 316 344 26 74 34 210 19 298 -12 65 -66 198 -93 229 -7
8 -17 20 -23 27 -5 7 -16 21 -23 30 -11 14 -8 25 17 70 50 89 72 164 76 263 4
116 -9 183 -51 270 -54 109 -60 118 -121 177 l-58 55 -1 119 c-1 131 -18 201
-76 302 -63 111 -198 220 -318 258 -66 21 -60 16 -66 49 -28 156 -166 309
-330 364 -100 33 -187 32 -318 -4 -17 -5 -27 -4 -24 1 6 10 14 88 23 227 4 58
3 87 -4 87 -6 0 -11 -3 -11 -7 -1 -21 -177 -203 -245 -252 -27 -21 -72 -50
-100 -65 -49 -28 -49 -28 36 55 106 104 165 177 220 271 70 119 80 168 79 353
-1 201 -10 418 -16 425 -3 3 -9 -2 -14 -10 -24 -44 -174 -176 -290 -256 l-85
-59 82 105 c86 109 263 356 263 366 0 3 9 19 21 35 l20 29 -36 143 c-20 78
-56 223 -81 322 -24 99 -51 207 -60 240 -22 86 -22 88 -23 108 -1 9 -5 17 -10
17 -5 0 -43 -34 -84 -75z"/>
</g>
</svg>
